# xmcd
#
# Track frame offsets: 
#        150
#        12458
#        24194
#        36830
#        48357
#        55222
#        65511
#        70853
#        75611
#        89019
#        97355
#        109749
#        124039
#        136817
#        147818
#        160245
#        171815
#        184482
#        199064
#
# Disc length: 2829 seconds
#
# Revision: 0
# Processed by: cddbd v1.5.2PL0 Copyright (c) Steve Scherf et al.
# Submitted via: ExactAudioCopy v1.0b3
#
DISCID=0e0b0b13
DTITLE=Gene Autry - Tumbling Tumbleweeds - CD1
DYEAR=2010
DGENRE=Western
TTITLE0=Deep In The Heart Of Texas  (1942)
TTITLE1=Back In The Saddle Again  (1939)
TTITLE2=Goodbye Little Darling Goodbye  (1940)
TTITLE3=Don't Fence Me In  (1944)
TTITLE4=Melody Ranch  (1940)
TTITLE5=El Rancho Grande  (1940)
TTITLE6=Down Mexico Way  (1941)
TTITLE7=Colorado Sunset  (1939)
TTITLE8=I'll Go Ridin Down  (1936)
TTITLE9=Take Me Back To My Boots Ana Saddle (Live)  (1937)
TTITLE10=Any Old Time  (1931)
TTITLE11=Mexicali Rose  (1936)
TTITLE12=South Of The Border  (1939)
TTITLE13=You Are My Sunshine  (1941)
TTITLE14=Down In The Land Of Zulu  (1937)
TTITLE15=Someday In Wyoming  (1935)
TTITLE16=Dear Old Western Skies  (1935)
TTITLE17=The Last Round-Up  (1933)
TTITLE18=Texas Plains  (1935)
EXTD=
EXTT0=
EXTT1=
EXTT2=
EXTT3=
EXTT4=
EXTT5=
EXTT6=
EXTT7=
EXTT8=
EXTT9=
EXTT10=
EXTT11=
EXTT12=
EXTT13=
EXTT14=
EXTT15=
EXTT16=
EXTT17=
EXTT18=
PLAYORDER=
